{
	"asset":{
		"generator":"Khronos glTF Blender I/O v5.2.39",
		"version":"2.0"
	},
	"scene":0,
	"scenes":[
		{
			"name":"Scene",
			"nodes":[
				0
			]
		}
	],
	"nodes":[
		{
			"mesh":0,
			"name":"Knife"
		}
	],
	"materials":[
		{
			"doubleSided":true,
			"name":"Atlas.001",
			"pbrMetallicRoughness":{
				"baseColorTexture":{
					"index":0
				},
				"metallicFactor":0
			}
		}
	],
	"meshes":[
		{
			"name":"Knife",
			"primitives":[
				{
					"attributes":{
						"POSITION":0,
						"NORMAL":1,
						"TEXCOORD_0":2
					},
					"indices":3,
					"material":0
				}
			]
		}
	],
	"textures":[
		{
			"sampler":0,
			"source":0
		}
	],
	"images":[
		{
			"mimeType":"image/png",
			"name":"Zombie_Atlas",
			"uri":"Zombie_Atlas.png"
		}
	],
	"accessors":[
		{
			"bufferView":0,
			"componentType":5126,
			"count":932,
			"max":[
				0.13349023461341858,
				0.05337020009756088,
				0.6684784293174744
			],
			"min":[
				-0.018958546221256256,
				-0.026395972818136215,
				-0.16281819343566895
			],
			"type":"VEC3"
		},
		{
			"bufferView":1,
			"componentType":5126,
			"count":932,
			"type":"VEC3"
		},
		{
			"bufferView":2,
			"componentType":5126,
			"count":932,
			"type":"VEC2"
		},
		{
			"bufferView":3,
			"componentType":5123,
			"count":2580,
			"type":"SCALAR"
		}
	],
	"bufferViews":[
		{
			"buffer":0,
			"byteLength":11184,
			"byteOffset":0,
			"target":34962
		},
		{
			"buffer":0,
			"byteLength":11184,
			"byteOffset":11184,
			"target":34962
		},
		{
			"buffer":0,
			"byteLength":7456,
			"byteOffset":22368,
			"target":34962
		},
		{
			"buffer":0,
			"byteLength":5160,
			"byteOffset":29824,
			"target":34963
		}
	],
	"samplers":[
		{
			"magFilter":9729,
			"minFilter":9987
		}
	],
	"buffers":[
		{
			"byteLength":34984,
			"uri":"Knife.bin"
		}
	]
}
