{
	"asset":{
		"generator":"Khronos glTF Blender I/O v5.2.39",
		"version":"2.0"
	},
	"scene":0,
	"scenes":[
		{
			"name":"Scene",
			"nodes":[
				0
			]
		}
	],
	"nodes":[
		{
			"mesh":0,
			"name":"Rifle"
		}
	],
	"materials":[
		{
			"doubleSided":true,
			"name":"Atlas.001",
			"pbrMetallicRoughness":{
				"baseColorTexture":{
					"index":0
				},
				"metallicFactor":0
			}
		}
	],
	"meshes":[
		{
			"name":"Rifle",
			"primitives":[
				{
					"attributes":{
						"POSITION":0,
						"NORMAL":1,
						"TEXCOORD_0":2
					},
					"indices":3,
					"material":0
				}
			]
		}
	],
	"textures":[
		{
			"sampler":0,
			"source":0
		}
	],
	"images":[
		{
			"mimeType":"image/png",
			"name":"Zombie_Atlas",
			"uri":"Zombie_Atlas.png"
		}
	],
	"accessors":[
		{
			"bufferView":0,
			"componentType":5126,
			"count":2831,
			"max":[
				0.8020732998847961,
				0.34089991450309753,
				0.6379730701446533
			],
			"min":[
				-0.6700136065483093,
				-0.14925800263881683,
				-0.20812860131263733
			],
			"type":"VEC3"
		},
		{
			"bufferView":1,
			"componentType":5126,
			"count":2831,
			"type":"VEC3"
		},
		{
			"bufferView":2,
			"componentType":5126,
			"count":2831,
			"type":"VEC2"
		},
		{
			"bufferView":3,
			"componentType":5123,
			"count":6309,
			"type":"SCALAR"
		}
	],
	"bufferViews":[
		{
			"buffer":0,
			"byteLength":33972,
			"byteOffset":0,
			"target":34962
		},
		{
			"buffer":0,
			"byteLength":33972,
			"byteOffset":33972,
			"target":34962
		},
		{
			"buffer":0,
			"byteLength":22648,
			"byteOffset":67944,
			"target":34962
		},
		{
			"buffer":0,
			"byteLength":12618,
			"byteOffset":90592,
			"target":34963
		}
	],
	"samplers":[
		{
			"magFilter":9729,
			"minFilter":9987
		}
	],
	"buffers":[
		{
			"byteLength":103212,
			"uri":"Rifle.bin"
		}
	]
}
