{
	"asset":{
		"generator":"Khronos glTF Blender I/O v5.2.39",
		"version":"2.0"
	},
	"scene":0,
	"scenes":[
		{
			"name":"Scene",
			"nodes":[
				0
			]
		}
	],
	"nodes":[
		{
			"children":[
				1
			],
			"mesh":0,
			"name":"Shotgun"
		},
		{
			"name":"MuzzleSocket",
			"translation":[
				0.799,
				0.2648,
				0.5322
			]
		}
	],
	"materials":[
		{
			"doubleSided":true,
			"name":"Atlas.001",
			"pbrMetallicRoughness":{
				"baseColorTexture":{
					"index":0
				},
				"metallicFactor":0
			}
		}
	],
	"meshes":[
		{
			"name":"Shotgun",
			"primitives":[
				{
					"attributes":{
						"POSITION":0,
						"NORMAL":1,
						"TEXCOORD_0":2
					},
					"indices":3,
					"material":0
				}
			]
		}
	],
	"textures":[
		{
			"sampler":0,
			"source":0
		}
	],
	"images":[
		{
			"mimeType":"image/png",
			"name":"Zombie_Atlas",
			"uri":"Zombie_Atlas.png"
		}
	],
	"accessors":[
		{
			"bufferView":0,
			"componentType":5126,
			"count":1878,
			"max":[
				0.7689898014068604,
				0.31089916825294495,
				0.5863621234893799
			],
			"min":[
				-0.12166576087474823,
				-0.06836110353469849,
				-0.11696256697177887
			],
			"type":"VEC3"
		},
		{
			"bufferView":1,
			"componentType":5126,
			"count":1878,
			"type":"VEC3"
		},
		{
			"bufferView":2,
			"componentType":5126,
			"count":1878,
			"type":"VEC2"
		},
		{
			"bufferView":3,
			"componentType":5123,
			"count":4626,
			"type":"SCALAR"
		}
	],
	"bufferViews":[
		{
			"buffer":0,
			"byteLength":22536,
			"byteOffset":0,
			"target":34962
		},
		{
			"buffer":0,
			"byteLength":22536,
			"byteOffset":22536,
			"target":34962
		},
		{
			"buffer":0,
			"byteLength":15024,
			"byteOffset":45072,
			"target":34962
		},
		{
			"buffer":0,
			"byteLength":9252,
			"byteOffset":60096,
			"target":34963
		}
	],
	"samplers":[
		{
			"magFilter":9729,
			"minFilter":9987
		}
	],
	"buffers":[
		{
			"byteLength":69348,
			"uri":"Shotgun.bin"
		}
	]
}
