{
	"asset":{
		"generator":"Khronos glTF Blender I/O v5.2.39",
		"version":"2.0"
	},
	"scene":0,
	"scenes":[
		{
			"name":"Scene",
			"nodes":[
				0
			]
		}
	],
	"nodes":[
		{
			"mesh":0,
			"name":"Pistol"
		}
	],
	"materials":[
		{
			"doubleSided":true,
			"name":"Atlas.001",
			"pbrMetallicRoughness":{
				"baseColorTexture":{
					"index":0
				},
				"metallicFactor":0
			}
		}
	],
	"meshes":[
		{
			"name":"Pistol",
			"primitives":[
				{
					"attributes":{
						"POSITION":0,
						"NORMAL":1,
						"TEXCOORD_0":2
					},
					"indices":3,
					"material":0
				}
			]
		}
	],
	"textures":[
		{
			"sampler":0,
			"source":0
		}
	],
	"images":[
		{
			"mimeType":"image/png",
			"name":"Zombie_Atlas",
			"uri":"Zombie_Atlas.png"
		}
	],
	"accessors":[
		{
			"bufferView":0,
			"componentType":5126,
			"count":1702,
			"max":[
				0.7228907942771912,
				0.2978748083114624,
				0.4441177546977997
			],
			"min":[
				-0.14276014268398285,
				-0.06833392381668091,
				-0.11370447278022766
			],
			"type":"VEC3"
		},
		{
			"bufferView":1,
			"componentType":5126,
			"count":1702,
			"type":"VEC3"
		},
		{
			"bufferView":2,
			"componentType":5126,
			"count":1702,
			"type":"VEC2"
		},
		{
			"bufferView":3,
			"componentType":5123,
			"count":4338,
			"type":"SCALAR"
		}
	],
	"bufferViews":[
		{
			"buffer":0,
			"byteLength":20424,
			"byteOffset":0,
			"target":34962
		},
		{
			"buffer":0,
			"byteLength":20424,
			"byteOffset":20424,
			"target":34962
		},
		{
			"buffer":0,
			"byteLength":13616,
			"byteOffset":40848,
			"target":34962
		},
		{
			"buffer":0,
			"byteLength":8676,
			"byteOffset":54464,
			"target":34963
		}
	],
	"samplers":[
		{
			"magFilter":9729,
			"minFilter":9987
		}
	],
	"buffers":[
		{
			"byteLength":63140,
			"uri":"Pistol.bin"
		}
	]
}
