{
	"asset":{
		"generator":"Khronos glTF Blender I/O v5.2.39",
		"version":"2.0"
	},
	"scene":0,
	"scenes":[
		{
			"name":"Scene",
			"nodes":[
				0
			]
		}
	],
	"nodes":[
		{
			"children":[
				1
			],
			"mesh":0,
			"name":"SMG"
		},
		{
			"name":"MuzzleSocket",
			"translation":[
				0.6346,
				0.2511,
				0.497
			]
		}
	],
	"materials":[
		{
			"doubleSided":true,
			"name":"Atlas.001",
			"pbrMetallicRoughness":{
				"baseColorTexture":{
					"index":0
				},
				"metallicFactor":0
			}
		}
	],
	"meshes":[
		{
			"name":"SMG",
			"primitives":[
				{
					"attributes":{
						"POSITION":0,
						"NORMAL":1,
						"TEXCOORD_0":2
					},
					"indices":3,
					"material":0
				}
			]
		}
	],
	"textures":[
		{
			"sampler":0,
			"source":0
		}
	],
	"images":[
		{
			"mimeType":"image/png",
			"name":"Zombie_Atlas",
			"uri":"Zombie_Atlas.png"
		}
	],
	"accessors":[
		{
			"bufferView":0,
			"componentType":5126,
			"count":3880,
			"max":[
				0.6045622825622559,
				0.2872962951660156,
				0.539338231086731
			],
			"min":[
				-0.31180238723754883,
				-0.05484530329704285,
				-0.09065002202987671
			],
			"type":"VEC3"
		},
		{
			"bufferView":1,
			"componentType":5126,
			"count":3880,
			"type":"VEC3"
		},
		{
			"bufferView":2,
			"componentType":5126,
			"count":3880,
			"type":"VEC2"
		},
		{
			"bufferView":3,
			"componentType":5123,
			"count":7491,
			"type":"SCALAR"
		}
	],
	"bufferViews":[
		{
			"buffer":0,
			"byteLength":46560,
			"byteOffset":0,
			"target":34962
		},
		{
			"buffer":0,
			"byteLength":46560,
			"byteOffset":46560,
			"target":34962
		},
		{
			"buffer":0,
			"byteLength":31040,
			"byteOffset":93120,
			"target":34962
		},
		{
			"buffer":0,
			"byteLength":14982,
			"byteOffset":124160,
			"target":34963
		}
	],
	"samplers":[
		{
			"magFilter":9729,
			"minFilter":9987
		}
	],
	"buffers":[
		{
			"byteLength":139144,
			"uri":"SMG.bin"
		}
	]
}
